HIERARCHY
ROOT Hips
{
	OFFSET 0.000000 0.000000 0.000000
	CHANNELS 6 Xposition Yposition Zposition Zrotation Yrotation Xrotation 
	JOINT LHipJoint
	{
		OFFSET 0.000000 0.000000 0.000000
		CHANNELS 3 Zrotation Yrotation Xrotation
		JOINT LeftUpLeg
		{
			OFFSET 1.363060 -1.794630 0.839290
			CHANNELS 3 Zrotation Yrotation Xrotation
			JOINT LeftLeg
			{
				OFFSET 2.448110 -6.726130 0.000000
				CHANNELS 3 Zrotation Yrotation Xrotation
				JOINT LeftFoot
				{
					OFFSET 2.562200 -7.039590 0.000000
					CHANNELS 3 Zrotation Yrotation Xrotation
					JOINT LeftToeBase
					{
						OFFSET 0.157640 -0.433110 2.322550
						CHANNELS 3 Zrotation Yrotation Xrotation
						End Site
						{
							OFFSET 0.000000 0.000000 0.000000
						}
					}
				}
			}
		}
	}
	JOINT RHipJoint
	{
		OFFSET 0.000000 0.000000 0.000000
		CHANNELS 3 Zrotation Yrotation Xrotation
		JOINT RightUpLeg
		{
			OFFSET -1.305520 -1.794630 0.839290
			CHANNELS 3 Zrotation Yrotation Xrotation
			JOINT RightLeg
			{
				OFFSET -2.542530 -6.985550 0.000000
				CHANNELS 3 Zrotation Yrotation Xrotation
				JOINT RightFoot
				{
					OFFSET -2.568260 -7.056230 0.000000
					CHANNELS 3 Zrotation Yrotation Xrotation
					JOINT RightToeBase
					{
						OFFSET -0.164730 -0.452590 2.363150
						CHANNELS 3 Zrotation Yrotation Xrotation
						End Site
						{
							OFFSET 0.000000 0.000000 0.000000
						}
					}
				}
			}
		}
	}
	JOINT LowerBack
	{
		OFFSET 0.000000 0.000000 0.000000
		CHANNELS 3 Zrotation Yrotation Xrotation
		JOINT Spine
		{
			OFFSET 0.028270 2.035590 -0.193380
			CHANNELS 3 Zrotation Yrotation Xrotation
			JOINT Spine1
			{
				OFFSET 0.056720 2.048850 -0.042750
				CHANNELS 3 Zrotation Yrotation Xrotation
				JOINT Neck
				{
					OFFSET 0.000000 0.000000 0.000000
					CHANNELS 3 Zrotation Yrotation Xrotation
					JOINT Neck1
					{
						OFFSET -0.054170 1.746240 0.172020
						CHANNELS 3 Zrotation Yrotation Xrotation
						JOINT Head
						{
							OFFSET 0.104070 1.761360 -0.123970
							CHANNELS 3 Zrotation Yrotation Xrotation
							End Site
							{
								OFFSET 0.000000 0.000000 0.000000
							}
						}
					}
				}
				JOINT LeftShoulder
				{
					OFFSET 0.000000 0.000000 0.000000
					CHANNELS 3 Zrotation Yrotation Xrotation
					JOINT LeftArm
					{
						OFFSET 3.362410 1.200890 -0.311210
						CHANNELS 3 Zrotation Yrotation Xrotation
						JOINT LeftForeArm
						{
							OFFSET 4.983000 -0.000000 -0.000000
							CHANNELS 3 Zrotation Yrotation Xrotation
							JOINT LeftHand
							{
								OFFSET 3.483560 -0.000000 -0.000000
								CHANNELS 3 Zrotation Yrotation Xrotation
								JOINT LeftFingerBase
								{
									OFFSET 0.000000 0.000000 0.000000
									CHANNELS 3 Zrotation Yrotation Xrotation
									JOINT LeftHandIndex1
									{
										OFFSET 0.715260 -0.000000 -0.000000
										CHANNELS 3 Zrotation Yrotation Xrotation
										End Site
										{
											OFFSET 0.000000 0.000000 0.000000
										}
									}
								}
								JOINT LThumb
								{
									OFFSET 0.000000 0.000000 0.000000
									CHANNELS 3 Zrotation Yrotation Xrotation
									End Site
									{
										OFFSET 0.000000 0.000000 0.000000
									}
								}
							}
						}
					}
				}
				JOINT RightShoulder
				{
					OFFSET 0.000000 0.000000 0.000000
					CHANNELS 3 Zrotation Yrotation Xrotation
					JOINT RightArm
					{
						OFFSET -3.136600 1.374050 -0.404650
						CHANNELS 3 Zrotation Yrotation Xrotation
						JOINT RightForeArm
						{
							OFFSET -5.241900 -0.000000 -0.000000
							CHANNELS 3 Zrotation Yrotation Xrotation
							JOINT RightHand
							{
								OFFSET -3.444170 -0.000000 -0.000000
								CHANNELS 3 Zrotation Yrotation Xrotation
								JOINT RightFingerBase
								{
									OFFSET 0.000000 0.000000 0.000000
									CHANNELS 3 Zrotation Yrotation Xrotation
									JOINT RightHandIndex1
									{
										OFFSET -0.622530 -0.000000 -0.000000
										CHANNELS 3 Zrotation Yrotation Xrotation
										End Site
										{
											OFFSET 0.000000 0.000000 0.000000
										}
									}
								}
								JOINT RThumb
								{
									OFFSET 0.000000 0.000000 0.000000
									CHANNELS 3 Zrotation Yrotation Xrotation
									End Site
									{
										OFFSET 0.000000 0.000000 0.000000
									}
								}
							}
						}
					}
				}
			}
		}
	}
}
MOTION
Frames: 6
Frame Time: 0.008333
4.320918 16.815594 1.135727 -96.077559 -89.688649 97.921976 -8.729410 1.877307 2.303199 -15.129446 8.567075 -29.062406 -2.552184 0.069851 16.597173 0.782509 5.413978 0.287079 0.988200 0.000000 -20.590900 11.435845 -3.661411 -1.406464 2.277646 -19.292387 2.756355 1.570946 -1.501374 25.264024 -0.586281 -1.657140 -6.397552 -0.076500 -0.000000 -86.424800 -4.334792 -0.328286 -3.204876 -1.277253 -0.125563 -2.740535 -4.638967 -0.177540 3.411415 9.324674 -17.404675 -11.885934 -0.907674 -0.009944 -1.103794 0.000000 0.000000 0.000000 -1.840003 30.027840 1.528108 -73.313718 30.340074 -5.043370 -4.743507 -17.377551 -0.044564 -5.921996 13.020151 -0.670838 -0.126374 -0.151581 -0.000000 0.000000 0.000000 0.000000 0.000000 0.000000 0.000000 9.355637 -12.008670 -0.287036 50.873370 6.144900 9.951230 2.127642 46.465916 0.012920 3.324618 4.599445 0.135244 0.059164 -0.119218 0.000000 0.000000 0.000000 0.000000 0.000000 0.000000 0.000000 
4.189371 16.817277 1.150675 -96.649371 -89.865241 98.258298 -8.709474 1.952454 2.228869 -15.285910 8.724602 -28.797408 -2.531227 0.155947 17.611938 0.797069 5.402506 -0.169034 0.921400 0.000000 -19.453200 11.635632 -3.657720 -1.615930 1.290355 -20.394125 1.595611 1.357804 -1.800337 28.473056 -0.502914 -1.299100 -4.829398 -0.120000 0.000001 -88.610500 -4.569030 -0.396200 -2.945297 -1.331499 -0.170836 -2.697774 -4.667881 -0.217328 3.399431 9.377328 -17.428697 -11.886681 -0.918248 -0.010399 -1.105963 0.000000 0.000000 0.000000 -1.760535 29.889625 1.543265 -73.581050 29.881469 -4.814417 -4.714619 -17.419640 -0.043901 -5.827896 13.014009 -0.659631 -0.125095 -0.150463 -0.000000 0.000000 0.000000 0.000000 0.000000 0.000000 0.000000 9.419880 -12.046529 -0.322088 51.647852 5.771137 9.658991 2.156165 46.244913 0.013005 3.259572 4.644725 0.133756 0.061028 -0.119235 0.000000 0.000000 0.000000 0.000000 0.000000 0.000000 0.000000 
4.059881 16.819318 1.165870 82.468499 -89.953922 -81.065331 -8.685368 2.029287 2.165145 -15.454880 8.853706 -28.504951 -2.522677 0.229762 18.509634 0.811156 5.372790 -0.706906 0.844900 0.000000 -18.563800 11.831434 -3.624101 -1.813813 0.340489 -21.445585 0.347483 1.119713 -2.076040 31.681173 -0.457848 -1.080246 -3.126856 -0.147099 -0.000000 -90.198200 -4.798953 -0.459692 -2.703896 -1.385264 -0.213267 -2.658776 -4.696148 -0.254485 3.387489 9.431941 -17.475013 -11.892524 -0.927785 -0.010696 -1.109266 0.000000 0.000000 0.000000 -1.651138 29.722283 1.556723 -73.843243 29.418854 -4.519734 -4.686125 -17.555597 -0.043291 -5.766139 13.000180 -0.651926 -0.123761 -0.149324 -0.000000 0.000000 0.000000 0.000000 0.000000 0.000000 0.000000 9.487297 -12.105720 -0.349771 52.449070 5.377542 9.394440 2.189976 46.019663 0.013142 3.261936 4.671076 0.134565 0.062401 -0.118780 0.000000 0.000000 0.000000 0.000000 0.000000 0.000000 0.000000 
3.932453 16.821077 1.181058 81.639102 -89.772000 -80.405045 -8.659358 2.102372 2.113817 -15.629177 8.938120 -28.196676 -2.522188 0.291449 19.303905 0.827320 5.346347 -1.308056 0.763900 0.000000 -17.918900 12.015866 -3.561243 -1.995586 -0.536393 -22.409260 -0.977304 0.870870 -2.325144 34.841948 -0.455620 -1.027367 -1.403865 -0.165100 -0.000000 -91.081600 -5.022411 -0.521613 -2.487558 -1.437570 -0.255968 -2.624419 -4.724148 -0.292341 3.375971 9.493060 -17.544798 -11.905104 -0.936952 -0.010876 -1.114121 0.000000 0.000000 0.000000 -1.517305 29.530582 1.567357 -74.095883 28.959349 -4.150192 -4.657454 -17.791784 -0.042676 -5.739561 12.956584 -0.646718 -0.122293 -0.148148 -0.000000 0.000000 0.000000 0.000000 0.000000 0.000000 0.000000 9.567370 -12.188496 -0.369370 53.257457 4.977851 9.175969 2.228400 45.794959 0.013320 3.333869 4.674760 0.137573 0.063240 -0.117790 0.000000 0.000000 0.000000 0.000000 0.000000 0.000000 0.000000 
3.806882 16.822221 1.196373 81.460609 -89.599911 -80.342529 -8.637136 2.161864 2.075468 -15.795765 8.975787 -27.898142 -2.523917 0.339268 20.011718 0.848154 5.345567 -1.953991 0.682700 0.000000 -17.510001 12.179054 -3.478935 -2.150615 -1.285460 -23.230204 -2.395892 0.626918 -2.551182 37.933573 -0.497921 -1.179652 0.218550 -0.190400 -0.000000 -91.237400 -5.227162 -0.581727 -2.310165 -1.485849 -0.299711 -2.597666 -4.753937 -0.332007 3.362974 9.562564 -17.626482 -11.923396 -0.948210 -0.011210 -1.120131 0.000000 0.000000 0.000000 -1.374538 29.314839 1.573690 -74.329110 28.514910 -3.692367 -4.627018 -18.134558 -0.041974 -5.745053 12.860128 -0.642709 -0.120569 -0.146930 -0.000000 0.000000 0.000000 0.000000 0.000000 0.000000 0.000000 9.668030 -12.281090 -0.380523 54.056197 4.561640 8.998078 2.270692 45.586647 0.013525 3.474256 4.651362 0.142778 0.063534 -0.116282 0.000000 0.000000 0.000000 0.000000 0.000000 0.000000 0.000000 
3.683299 16.822370 1.211336 81.871477 -89.438737 -80.823195 -8.615871 2.208478 2.048907 -15.951597 8.958802 -27.606723 -2.524722 0.375350 20.648739 0.876891 5.393181 -2.629900 0.603700 -0.000000 -17.294200 12.320975 -3.376852 -2.282598 -1.899790 -23.906705 -3.885246 0.399451 -2.755495 40.919818 -0.577626 -1.537594 1.614473 -0.239501 -0.000000 -90.711000 -5.415086 -0.643989 -2.165687 -1.530152 -0.347898 -2.576454 -4.785331 -0.376772 3.351052 9.644810 -17.727300 -11.950080 -0.961151 -0.011597 -1.128146 0.000000 0.000000 0.000000 -1.227861 29.089292 1.575127 -74.541211 28.076330 -3.162128 -4.594386 -18.565205 -0.041134 -5.773248 12.697097 -0.637897 -0.118608 -0.145593 -0.000000 0.000000 0.000000 0.000000 0.000000 0.000000 0.000000 9.797041 -12.394033 -0.384287 54.833927 4.167921 8.894566 2.315974 45.374855 0.013735 3.659030 4.611918 0.149182 0.063512 -0.114319 0.000000 0.000000 0.000000 0.000000 0.000000 0.000000 0.000000 
